<?xml version="1.0" encoding="UTF-8"?>
<svg xmlns="http://www.w3.org/2000/svg" id="Layer_2" data-name="Layer 2" viewBox="0 0 204.16 52.94">
  <defs>
    <style>
      .cls-1, .cls-2 {
        fill: none;
      }

      .cls-1, .cls-3, .cls-4, .cls-5, .cls-6, .cls-7, .cls-8, .cls-9, .cls-10, .cls-11, .cls-12, .cls-13, .cls-14, .cls-15, .cls-16, .cls-17, .cls-18, .cls-19, .cls-20, .cls-21, .cls-22, .cls-23, .cls-24, .cls-25, .cls-26, .cls-27, .cls-28, .cls-29, .cls-30, .cls-31, .cls-32, .cls-33, .cls-34, .cls-35, .cls-36, .cls-37, .cls-38, .cls-39, .cls-40, .cls-41, .cls-42, .cls-43, .cls-44, .cls-45, .cls-46, .cls-47, .cls-48, .cls-49, .cls-50, .cls-51, .cls-52, .cls-53, .cls-54, .cls-55, .cls-56, .cls-57, .cls-58, .cls-59, .cls-60, .cls-61, .cls-62, .cls-63, .cls-64, .cls-65, .cls-66, .cls-67, .cls-68, .cls-69, .cls-70, .cls-71, .cls-72, .cls-73, .cls-74, .cls-75, .cls-76, .cls-77, .cls-78, .cls-79, .cls-80, .cls-81, .cls-82, .cls-83, .cls-84, .cls-85, .cls-86, .cls-87, .cls-88, .cls-89 {
        stroke-width: 0px;
      }

      .cls-2 {
        stroke: gray;
        stroke-miterlimit: 10;
        stroke-width: .64px;
      }

      .cls-3 {
        fill: #5dccfc;
      }

      .cls-4 {
        fill: #7999fe;
      }

      .cls-5 {
        fill: #5fcafc;
      }

      .cls-6 {
        fill: #75a6fd;
      }

      .cls-7 {
        fill: #789ffe;
      }

      .cls-8 {
        fill: #7a96fe;
      }

      .cls-9 {
        fill: #7b93fe;
      }

      .cls-10 {
        fill: #59d1fb;
      }

      .cls-11 {
        fill: #8149ff;
      }

      .cls-12 {
        fill: #6cb9fd;
      }

      .cls-13 {
        fill: #6eb4fd;
      }

      .cls-14 {
        fill: #807bfe;
      }

      .cls-15 {
        fill: #807cfe;
      }

      .cls-16 {
        fill: #6eb6fd;
      }

      .cls-17 {
        fill: #813eff;
      }

      .cls-18 {
        fill: #c82a00;
      }

      .cls-19 {
        fill: #e38700;
      }

      .cls-20 {
        fill: #cd3f00;
      }

      .cls-21 {
        fill: #df7900;
      }

      .cls-22 {
        fill: #d14d00;
      }

      .cls-23 {
        fill: #d25100;
      }

      .cls-24 {
        fill: #d24f00;
      }

      .cls-25 {
        fill: #ce4300;
      }

      .cls-26 {
        fill: #da6b00;
      }

      .cls-27 {
        fill: #e18000;
      }

      .cls-28 {
        fill: #c92f00;
      }

      .cls-29 {
        fill: #d55900;
      }

      .cls-30 {
        fill: #de7800;
      }

      .cls-31 {
        fill: #dc7000;
      }

      .cls-32 {
        fill: #dc6e00;
      }

      .cls-33 {
        fill: #e28300;
      }

      .cls-34 {
        fill: #ca3200;
      }

      .cls-35 {
        fill: #d86200;
      }

      .cls-36 {
        fill: #d75f00;
      }

      .cls-37 {
        fill: #d55a00;
      }

      .cls-38 {
        fill: #dd7200;
      }

      .cls-39 {
        fill: #d65e00;
      }

      .cls-40 {
        fill: #db6c00;
      }

      .cls-41 {
        fill: #d86400;
      }

      .cls-42 {
        fill: #d04a00;
      }

      .cls-43 {
        fill: #666;
      }

      .cls-44 {
        fill: #72adfd;
      }

      .cls-45 {
        fill: #333;
      }

      .cls-46 {
        fill: #7f82fe;
      }

      .cls-47 {
        fill: #7f84fe;
      }

      .cls-48 {
        fill: #7c8efe;
      }

      .cls-49 {
        fill: #7d8dfe;
      }

      .cls-50 {
        fill: #7d8cfe;
      }

      .cls-51 {
        fill: #7d8afe;
      }

      .cls-52 {
        fill: #8078ff;
      }

      .cls-53 {
        fill: #7e88fe;
      }

      .cls-54 {
        fill: #7e87fe;
      }

      .cls-55 {
        fill: #8167ff;
      }

      .cls-56 {
        fill: #8172ff;
      }

      .cls-57 {
        fill: #73abfd;
      }

      .cls-58 {
        fill: #8141ff;
      }

      .cls-59 {
        fill: #8146ff;
      }

      .cls-60 {
        fill: #8169ff;
      }

      .cls-61 {
        fill: #816fff;
      }

      .cls-62 {
        fill: #8170ff;
      }

      .cls-63 {
        fill: #8252ff;
      }

      .cls-64 {
        fill: #8255ff;
      }

      .cls-65 {
        fill: #8034ff;
      }

      .cls-66 {
        fill: #825bff;
      }

      .cls-67 {
        fill: #8031ff;
      }

      .cls-68 {
        fill: #8258ff;
      }

      .cls-69 {
        fill: #f2be00;
      }

      .cls-70 {
        fill: #e48900;
      }

      .cls-71 {
        fill: #fff;
      }

      .cls-72 {
        fill: #eba200;
      }

      .cls-73 {
        fill: #eead00;
      }

      .cls-74 {
        fill: #eeae00;
      }

      .cls-75 {
        fill: #e58d00;
      }

      .cls-76 {
        fill: #e68f00;
      }

      .cls-77 {
        fill: #f0b600;
      }

      .cls-78 {
        fill: #e79400;
      }

      .cls-79 {
        fill: #e79300;
      }

      .cls-80 {
        fill: #eba100;
      }

      .cls-81 {
        fill: #efb100;
      }

      .cls-82 {
        fill: #eca500;
      }

      .cls-83 {
        fill: #f1b900;
      }

      .cls-84 {
        fill: #e99a00;
      }

      .cls-85 {
        fill: #e99c00;
      }

      .cls-86 {
        fill: #e99b00;
      }

      .cls-87 {
        fill: #e89600;
      }

      .cls-88 {
        fill: #ea9f00;
      }

      .cls-89 {
        fill: #67c0fc;
      }
    </style>
  </defs>
  <g id="Layer_1-2" data-name="Layer 1">
    <g>
      <g>
        <path class="cls-45" d="M61.2,31.2l5.59-12.54h2.87l5.61,12.54h-3.05l-4.59-11.08h1.15l-4.61,11.08h-2.97ZM63.99,28.51l.77-2.2h6.45l.79,2.2h-8.01Z"></path>
        <path class="cls-45" d="M75.99,31.2v-9.64h2.67v2.72l-.38-.79c.29-.68.75-1.2,1.38-1.55.63-.35,1.4-.53,2.31-.53v2.58c-.12-.01-.23-.02-.32-.03s-.2,0-.3,0c-.76,0-1.38.22-1.85.65-.47.44-.71,1.11-.71,2.03v4.55h-2.8Z"></path>
        <path class="cls-45" d="M87.75,31.34c-1.04,0-1.97-.21-2.78-.64-.81-.42-1.45-1.01-1.91-1.76-.46-.75-.69-1.61-.69-2.56s.23-1.82.69-2.57c.46-.75,1.1-1.33,1.91-1.76.81-.42,1.74-.64,2.78-.64s1.9.21,2.65.64c.75.42,1.31,1.03,1.67,1.82l-2.17,1.17c-.25-.45-.56-.79-.94-1-.38-.21-.79-.32-1.23-.32-.48,0-.91.11-1.29.32-.38.22-.68.52-.9.91-.22.39-.33.87-.33,1.43s.11,1.04.33,1.43c.22.39.52.7.9.91.38.22.81.32,1.29.32.44,0,.85-.1,1.23-.31.38-.21.69-.55.94-1.01l2.17,1.18c-.36.78-.91,1.38-1.67,1.8-.75.42-1.64.64-2.65.64Z"></path>
        <path class="cls-45" d="M99.05,21.41c.76,0,1.45.15,2.05.46.6.3,1.08.77,1.42,1.4.35.63.52,1.43.52,2.41v5.52h-2.8v-5.09c0-.78-.17-1.35-.51-1.72-.34-.37-.82-.56-1.44-.56-.44,0-.84.09-1.19.28s-.63.47-.82.85c-.2.38-.3.87-.3,1.47v4.77h-2.79v-13.3h2.79v6.33l-.63-.81c.35-.64.84-1.14,1.49-1.49.65-.35,1.38-.52,2.21-.52Z"></path>
        <path class="cls-45" d="M106.3,20.21c-.51,0-.93-.15-1.25-.45s-.48-.67-.48-1.11.16-.81.48-1.11.74-.45,1.25-.45.93.14,1.25.42c.32.28.48.64.48,1.08,0,.47-.16.85-.48,1.16-.32.3-.74.46-1.26.46ZM104.9,31.2v-9.64h2.8v9.64h-2.8Z"></path>
        <path class="cls-45" d="M112.45,31.2l-4.05-9.64h2.89l3.37,8.3h-1.43l3.5-8.3h2.69l-4.07,9.64h-2.89Z"></path>
        <path class="cls-45" d="M124.52,31.34c-1.1,0-2.06-.21-2.89-.65-.83-.43-1.47-1.02-1.93-1.76-.45-.75-.68-1.6-.68-2.55s.22-1.82.67-2.57c.45-.75,1.06-1.33,1.84-1.76.78-.42,1.65-.64,2.63-.64s1.79.2,2.55.6c.76.4,1.36.97,1.8,1.72.44.75.66,1.64.66,2.68,0,.11,0,.23-.02.37-.01.14-.02.27-.04.39h-7.83v-1.63h6.36l-1.08.48c0-.5-.1-.94-.3-1.31s-.48-.66-.84-.87-.78-.31-1.25-.31-.9.1-1.26.31-.65.5-.85.88-.3.82-.3,1.33v.43c0,.53.12.99.35,1.39.23.4.56.71.99.91.42.21.92.31,1.5.31.51,0,.96-.08,1.35-.23.39-.16.74-.39,1.07-.7l1.49,1.61c-.44.5-1,.89-1.67,1.16-.67.27-1.44.4-2.31.4Z"></path>
        <path class="cls-45" d="M133.85,31.34c-.82,0-1.62-.1-2.37-.3-.76-.2-1.36-.45-1.8-.74l.93-2.01c.44.28.96.5,1.57.67.6.17,1.2.26,1.78.26.65,0,1.1-.08,1.37-.23s.4-.37.4-.65c0-.23-.1-.4-.31-.51s-.49-.2-.83-.26c-.35-.06-.73-.12-1.14-.18-.41-.06-.83-.14-1.25-.24-.42-.1-.8-.25-1.15-.46s-.62-.48-.83-.82-.31-.79-.31-1.34c0-.61.18-1.15.53-1.61.35-.47.86-.83,1.53-1.1s1.47-.4,2.4-.4c.66,0,1.33.07,2.01.21.68.14,1.25.35,1.7.63l-.93,1.99c-.47-.28-.94-.46-1.41-.56s-.93-.15-1.37-.15c-.62,0-1.08.08-1.36.25-.29.17-.43.38-.43.65,0,.24.1.42.31.54.21.12.49.21.83.29.35.07.73.13,1.14.19s.83.13,1.25.24c.42.11.8.26,1.14.46s.62.47.83.81c.21.34.32.79.32,1.34,0,.6-.18,1.13-.54,1.59s-.88.82-1.55,1.08c-.68.26-1.5.39-2.46.39Z"></path>
        <path class="cls-45" d="M147.31,31.34c-.75,0-1.4-.13-1.94-.39s-.95-.61-1.24-1.05c-.29-.44-.43-.94-.43-1.49s.14-1.08.42-1.51c.28-.43.73-.77,1.33-1.01s1.4-.37,2.38-.37h2.56v1.63h-2.26c-.66,0-1.11.11-1.35.32s-.37.48-.37.81c0,.36.14.64.42.85.28.21.67.31,1.16.31s.88-.11,1.25-.33c.37-.22.64-.55.81-.98l.43,1.29c-.2.62-.57,1.09-1.11,1.42-.54.32-1.23.48-2.08.48ZM150.25,31.2v-1.88l-.18-.41v-3.37c0-.6-.18-1.06-.55-1.4-.36-.33-.92-.5-1.68-.5-.51,0-1.02.08-1.51.24-.5.16-.92.38-1.26.65l-1-1.95c.53-.37,1.16-.66,1.9-.86.74-.2,1.49-.3,2.26-.3,1.47,0,2.61.35,3.42,1.04.81.69,1.22,1.77,1.22,3.24v5.5h-2.62Z"></path>
        <path class="cls-45" d="M160.63,21.41c.76,0,1.45.15,2.05.46s1.08.77,1.42,1.4c.35.63.52,1.43.52,2.41v5.52h-2.79v-5.09c0-.78-.17-1.35-.51-1.72-.34-.37-.82-.56-1.44-.56-.44,0-.84.09-1.19.28s-.63.47-.82.85c-.2.38-.3.87-.3,1.47v4.77h-2.8v-9.64h2.67v2.67l-.5-.81c.35-.64.84-1.14,1.49-1.49.64-.35,1.38-.52,2.2-.52Z"></path>
        <path class="cls-45" d="M170.73,31.34c-.91,0-1.73-.21-2.46-.62s-1.31-.99-1.73-1.73c-.42-.74-.64-1.61-.64-2.62s.21-1.89.64-2.63c.42-.74,1-1.31,1.73-1.72s1.55-.61,2.46-.61c.81,0,1.52.18,2.13.54s1.08.9,1.42,1.63c.33.73.5,1.66.5,2.79s-.16,2.05-.48,2.79c-.32.74-.79,1.28-1.39,1.64s-1.33.54-2.18.54ZM171.21,29.04c.45,0,.87-.11,1.24-.32.37-.21.67-.52.89-.92.22-.4.33-.88.33-1.42s-.11-1.04-.33-1.43c-.22-.39-.52-.7-.89-.91-.37-.21-.78-.32-1.24-.32s-.88.11-1.25.32c-.37.22-.67.52-.89.91-.22.39-.33.87-.33,1.43s.11,1.03.33,1.42c.22.4.52.71.89.92.37.22.79.32,1.25.32ZM173.74,31.2v-1.97l.05-2.87-.18-2.85v-5.61h2.8v13.3h-2.67Z"></path>
        <path class="cls-45" d="M62.85,49.2v-12.54h5.43c1.12,0,2.09.18,2.9.55s1.44.89,1.88,1.57c.44.68.66,1.49.66,2.44s-.22,1.74-.66,2.41c-.44.68-1.07,1.19-1.88,1.55s-1.78.54-2.9.54h-3.82l1.29-1.27v4.77h-2.9ZM65.75,44.75l-1.29-1.36h3.66c.9,0,1.57-.19,2.01-.58.44-.39.66-.92.66-1.6s-.22-1.23-.66-1.61c-.44-.38-1.11-.57-2.01-.57h-3.66l1.29-1.38v7.12ZM70.82,49.2l-3.14-4.55h3.1l3.17,4.55h-3.14Z"></path>
        <path class="cls-45" d="M80.08,49.34c-1.1,0-2.06-.21-2.89-.65-.83-.43-1.47-1.02-1.93-1.76-.45-.75-.68-1.6-.68-2.55s.22-1.82.67-2.57c.45-.75,1.06-1.33,1.84-1.76.78-.42,1.66-.64,2.63-.64s1.79.2,2.55.6,1.36.97,1.8,1.72c.44.75.66,1.64.66,2.68,0,.11,0,.23-.02.37-.01.14-.02.27-.04.39h-7.83v-1.63h6.36l-1.08.48c0-.5-.1-.94-.3-1.31s-.48-.66-.84-.87-.78-.31-1.25-.31-.9.1-1.26.31c-.36.21-.65.5-.85.88s-.3.82-.3,1.33v.43c0,.53.12.99.35,1.39.23.4.56.71.99.91s.92.31,1.5.31c.51,0,.96-.08,1.35-.23.39-.16.74-.39,1.07-.7l1.49,1.61c-.44.5-1,.89-1.67,1.16s-1.44.4-2.31.4Z"></path>
        <path class="cls-45" d="M90.81,49.34c-1.04,0-1.97-.21-2.78-.64-.81-.42-1.45-1.01-1.91-1.76-.46-.75-.69-1.61-.69-2.56s.23-1.82.69-2.57c.46-.75,1.1-1.33,1.91-1.76.81-.42,1.74-.64,2.78-.64s1.9.21,2.65.64c.75.42,1.31,1.03,1.67,1.82l-2.17,1.17c-.25-.45-.56-.79-.94-1-.38-.21-.79-.32-1.23-.32-.48,0-.91.11-1.29.32-.38.22-.68.52-.9.91-.22.39-.33.87-.33,1.43s.11,1.04.33,1.43c.22.39.52.7.9.91.38.22.81.32,1.29.32.44,0,.85-.1,1.23-.31.38-.21.69-.55.94-1.01l2.17,1.18c-.36.78-.91,1.38-1.67,1.8-.75.42-1.64.64-2.65.64Z"></path>
        <path class="cls-45" d="M100.76,49.34c-1.03,0-1.94-.21-2.73-.65-.79-.43-1.42-1.02-1.88-1.76-.46-.75-.69-1.6-.69-2.55s.23-1.82.69-2.57c.46-.75,1.09-1.33,1.88-1.76.79-.42,1.71-.64,2.73-.64s1.92.21,2.72.64c.8.42,1.43,1.01,1.88,1.75s.68,1.6.68,2.58-.23,1.81-.68,2.55c-.45.75-1.08,1.33-1.88,1.76-.8.43-1.71.65-2.72.65ZM100.76,47.04c.47,0,.88-.11,1.25-.32.37-.21.66-.52.88-.92.22-.4.32-.88.32-1.42s-.11-1.04-.32-1.43c-.21-.39-.51-.7-.88-.91-.37-.21-.79-.32-1.25-.32s-.88.11-1.25.32c-.37.22-.67.52-.89.91-.22.39-.33.87-.33,1.43s.11,1.03.33,1.42c.22.4.52.71.89.92.37.22.79.32,1.25.32Z"></path>
        <path class="cls-45" d="M107.36,49.2v-9.64h2.67v2.72l-.38-.79c.29-.68.75-1.2,1.38-1.55.63-.35,1.4-.53,2.31-.53v2.58c-.12-.01-.23-.02-.32-.03-.1,0-.2,0-.3,0-.76,0-1.38.22-1.86.65s-.71,1.11-.71,2.03v4.55h-2.79Z"></path>
        <path class="cls-45" d="M118.61,49.34c-.91,0-1.73-.21-2.46-.62-.73-.41-1.31-.99-1.73-1.73-.42-.74-.64-1.61-.64-2.62s.21-1.89.64-2.63c.42-.74,1-1.31,1.73-1.72.73-.41,1.55-.61,2.46-.61.81,0,1.52.18,2.13.54s1.08.9,1.42,1.63c.33.73.5,1.66.5,2.79s-.16,2.05-.48,2.79c-.32.74-.79,1.28-1.39,1.64-.6.36-1.33.54-2.18.54ZM119.1,47.04c.45,0,.87-.11,1.24-.32.37-.21.67-.52.89-.92.22-.4.33-.88.33-1.42s-.11-1.04-.33-1.43c-.22-.39-.52-.7-.89-.91-.37-.21-.78-.32-1.24-.32s-.88.11-1.25.32c-.37.22-.67.52-.89.91-.22.39-.33.87-.33,1.43s.11,1.03.33,1.42c.22.4.52.71.89.92.37.22.79.32,1.25.32ZM121.62,49.2v-1.97l.05-2.87-.18-2.85v-5.61h2.8v13.3h-2.67Z"></path>
        <path class="cls-45" d="M129.68,49.34c-.82,0-1.62-.1-2.37-.3-.76-.2-1.36-.45-1.8-.74l.93-2.01c.44.28.96.5,1.57.67.6.17,1.2.26,1.78.26.65,0,1.1-.08,1.37-.23s.4-.37.4-.65c0-.23-.1-.4-.31-.51s-.49-.2-.83-.26c-.35-.06-.73-.12-1.14-.18-.41-.06-.83-.14-1.25-.24-.42-.1-.8-.25-1.15-.46s-.62-.48-.83-.82-.31-.79-.31-1.34c0-.61.18-1.15.53-1.61.35-.47.86-.83,1.53-1.1s1.47-.4,2.4-.4c.66,0,1.33.07,2.01.21.68.14,1.25.35,1.7.63l-.93,1.99c-.47-.28-.94-.46-1.41-.56s-.93-.15-1.37-.15c-.62,0-1.08.08-1.36.25-.29.17-.43.38-.43.65,0,.24.1.42.31.54.21.12.49.21.83.29.35.07.73.13,1.14.19s.83.13,1.25.24c.42.11.8.26,1.14.46s.62.47.83.81c.21.34.32.79.32,1.34,0,.6-.18,1.13-.54,1.59s-.88.82-1.55,1.08c-.68.26-1.5.39-2.46.39Z"></path>
        <path class="cls-45" d="M144.48,49.41c-1,0-1.96-.13-2.88-.4-.92-.27-1.66-.62-2.22-1.05l.99-2.19c.54.38,1.17.7,1.91.94.73.25,1.48.37,2.23.37.57,0,1.04-.06,1.39-.17.35-.11.61-.27.78-.47s.25-.44.25-.7c0-.33-.13-.6-.39-.8-.26-.2-.61-.36-1.04-.48s-.91-.25-1.42-.36-1.04-.25-1.56-.42c-.52-.17-.99-.38-1.42-.65-.43-.26-.78-.61-1.05-1.04-.27-.43-.4-.98-.4-1.65,0-.72.19-1.37.58-1.96.39-.59.97-1.06,1.76-1.42.78-.35,1.77-.53,2.95-.53.79,0,1.56.09,2.33.28.76.19,1.44.46,2.03.83l-.9,2.21c-.59-.33-1.17-.58-1.76-.74s-1.16-.24-1.72-.24-1.02.07-1.38.2c-.36.13-.62.3-.77.51s-.23.45-.23.73c0,.32.13.58.39.78s.61.36,1.04.47c.43.12.91.24,1.42.36.52.12,1.04.26,1.56.41s1,.37,1.42.63c.43.26.78.61,1.05,1.04.27.43.4.97.4,1.63,0,.71-.2,1.35-.59,1.94s-.98,1.06-1.77,1.42c-.78.36-1.77.54-2.97.54Z"></path>
        <path class="cls-45" d="M156,49.34c-1.1,0-2.06-.21-2.89-.65-.83-.43-1.47-1.02-1.93-1.76-.45-.75-.68-1.6-.68-2.55s.22-1.82.67-2.57c.45-.75,1.06-1.33,1.84-1.76.78-.42,1.66-.64,2.63-.64s1.79.2,2.55.6,1.36.97,1.8,1.72c.44.75.66,1.64.66,2.68,0,.11,0,.23-.02.37-.01.14-.02.27-.04.39h-7.83v-1.63h6.36l-1.08.48c0-.5-.1-.94-.3-1.31s-.48-.66-.84-.87-.78-.31-1.25-.31-.9.1-1.26.31c-.36.21-.65.5-.85.88s-.3.82-.3,1.33v.43c0,.53.12.99.35,1.39.23.4.56.71.99.91s.92.31,1.5.31c.51,0,.96-.08,1.35-.23.39-.16.74-.39,1.07-.7l1.49,1.61c-.44.5-1,.89-1.67,1.16s-1.44.4-2.31.4Z"></path>
        <path class="cls-45" d="M161.95,49.2v-9.64h2.67v2.72l-.38-.79c.29-.68.75-1.2,1.38-1.55.63-.35,1.4-.53,2.31-.53v2.58c-.12-.01-.23-.02-.32-.03s-.2,0-.3,0c-.76,0-1.38.22-1.85.65-.47.44-.71,1.11-.71,2.03v4.55h-2.8Z"></path>
        <path class="cls-45" d="M172.26,49.2l-4.05-9.64h2.89l3.37,8.3h-1.43l3.49-8.3h2.69l-4.07,9.64h-2.89Z"></path>
        <path class="cls-45" d="M181.3,38.21c-.51,0-.93-.15-1.25-.45-.32-.3-.48-.67-.48-1.11s.16-.81.48-1.11c.32-.3.74-.45,1.25-.45s.93.14,1.25.42c.32.28.48.64.48,1.08,0,.47-.16.85-.47,1.16-.32.3-.74.46-1.26.46ZM179.9,49.2v-9.64h2.79v9.64h-2.79Z"></path>
        <path class="cls-45" d="M189.35,49.34c-1.04,0-1.96-.21-2.78-.64-.81-.42-1.45-1.01-1.91-1.76-.46-.75-.69-1.61-.69-2.56s.23-1.82.69-2.57c.46-.75,1.1-1.33,1.91-1.76.81-.42,1.74-.64,2.78-.64s1.9.21,2.65.64c.75.42,1.31,1.03,1.67,1.82l-2.17,1.17c-.25-.45-.56-.79-.94-1-.38-.21-.79-.32-1.23-.32-.48,0-.91.11-1.29.32-.38.22-.68.52-.91.91-.22.39-.33.87-.33,1.43s.11,1.04.33,1.43c.22.39.52.7.91.91.38.22.81.32,1.29.32.44,0,.85-.1,1.23-.31.38-.21.69-.55.94-1.01l2.17,1.18c-.36.78-.91,1.38-1.67,1.8-.75.42-1.64.64-2.65.64Z"></path>
        <path class="cls-45" d="M199.5,49.34c-1.1,0-2.06-.21-2.89-.65-.83-.43-1.47-1.02-1.93-1.76-.45-.75-.68-1.6-.68-2.55s.22-1.82.67-2.57c.45-.75,1.06-1.33,1.84-1.76.78-.42,1.65-.64,2.63-.64s1.79.2,2.55.6c.76.4,1.36.97,1.8,1.72.44.75.66,1.64.66,2.68,0,.11,0,.23-.02.37-.01.14-.02.27-.04.39h-7.83v-1.63h6.36l-1.08.48c0-.5-.1-.94-.3-1.31s-.48-.66-.84-.87-.78-.31-1.25-.31-.9.1-1.26.31-.65.5-.85.88-.3.82-.3,1.33v.43c0,.53.12.99.35,1.39.23.4.56.71.99.91.42.21.92.31,1.5.31.51,0,.96-.08,1.35-.23.39-.16.74-.39,1.07-.7l1.49,1.61c-.44.5-1,.89-1.67,1.16-.67.27-1.44.4-2.31.4Z"></path>
      </g>
      <g>
        <path class="cls-43" d="M64.58,12.14c-.61,0-1.16-.14-1.64-.41-.49-.28-.87-.66-1.16-1.16s-.43-1.08-.43-1.75.14-1.27.43-1.76.67-.88,1.16-1.15c.49-.27,1.04-.41,1.64-.41.54,0,1.02.12,1.43.36.41.24.72.6.95,1.09.22.49.34,1.11.34,1.87s-.11,1.37-.32,1.87c-.22.49-.53.86-.93,1.1-.4.24-.89.36-1.46.36ZM64.9,10.6c.3,0,.58-.07.83-.22.25-.14.45-.35.59-.62.15-.27.22-.59.22-.95s-.07-.7-.22-.96-.35-.47-.59-.61c-.25-.14-.52-.22-.83-.22s-.59.07-.84.22c-.25.14-.45.35-.59.61-.15.26-.22.58-.22.96s.07.69.22.95c.15.27.35.47.59.62.25.14.53.22.84.22ZM66.59,12.04v-1.32l.04-1.92-.12-1.91v-3.76h1.87v8.91h-1.79Z"></path>
        <path class="cls-43" d="M70.95,4.69c-.34,0-.62-.1-.84-.3-.22-.2-.32-.45-.32-.74s.11-.54.32-.74c.22-.2.5-.3.84-.3s.62.09.84.28c.22.19.32.43.32.73,0,.31-.11.57-.32.77-.21.2-.49.31-.85.31ZM70.02,12.04v-6.46h1.87v6.46h-1.87Z"></path>
        <path class="cls-43" d="M75.38,12.04l-2.71-6.46h1.93l2.26,5.56h-.96l2.34-5.56h1.8l-2.72,6.46h-1.93Z"></path>
        <path class="cls-43" d="M81.74,4.69c-.34,0-.62-.1-.84-.3-.22-.2-.32-.45-.32-.74s.11-.54.32-.74c.22-.2.5-.3.84-.3s.62.09.84.28.32.43.32.73c0,.31-.11.57-.32.77s-.49.31-.85.31ZM80.81,12.04v-6.46h1.87v6.46h-1.87Z"></path>
        <path class="cls-43" d="M86.59,12.14c-.55,0-1.08-.07-1.59-.2-.51-.13-.91-.3-1.21-.5l.62-1.34c.3.18.65.33,1.05.45.4.12.8.17,1.19.17.43,0,.74-.05.92-.16.18-.1.27-.25.27-.43,0-.15-.07-.27-.21-.34-.14-.08-.33-.13-.56-.17-.23-.04-.49-.08-.76-.12s-.55-.09-.83-.16c-.28-.07-.54-.17-.77-.31-.23-.14-.42-.32-.56-.55-.14-.23-.21-.53-.21-.9,0-.41.12-.77.35-1.08.24-.31.58-.56,1.03-.74.45-.18.98-.27,1.61-.27.44,0,.89.05,1.34.14.46.1.84.24,1.14.42l-.62,1.33c-.31-.18-.63-.31-.94-.38-.32-.07-.62-.1-.92-.1-.42,0-.72.06-.91.17s-.29.26-.29.43c0,.16.07.28.21.36s.33.14.56.19c.23.05.49.09.76.13s.55.09.83.16.53.17.76.31c.23.13.41.31.56.54.14.23.22.53.22.89,0,.4-.12.75-.36,1.06-.24.31-.59.55-1.04.73s-1,.26-1.65.26Z"></path>
        <path class="cls-43" d="M91.71,4.69c-.34,0-.62-.1-.84-.3-.22-.2-.32-.45-.32-.74s.11-.54.32-.74c.22-.2.5-.3.84-.3s.62.09.84.28.32.43.32.73c0,.31-.11.57-.32.77s-.49.31-.85.31ZM90.78,12.04v-6.46h1.87v6.46h-1.87Z"></path>
        <path class="cls-43" d="M97.37,12.14c-.69,0-1.3-.14-1.83-.43-.53-.29-.95-.68-1.26-1.18s-.46-1.07-.46-1.71.15-1.22.46-1.72.73-.89,1.26-1.18c.53-.28,1.14-.43,1.83-.43s1.29.14,1.82.43.96.67,1.26,1.17.46,1.07.46,1.73-.15,1.21-.46,1.71-.72.89-1.26,1.18-1.14.43-1.82.43ZM97.37,10.6c.31,0,.59-.07.84-.22.25-.14.44-.35.59-.62.14-.27.22-.59.22-.95s-.07-.7-.22-.96c-.14-.26-.34-.47-.59-.61-.25-.14-.53-.22-.84-.22s-.59.07-.84.22c-.25.14-.45.35-.59.61s-.22.58-.22.96.07.69.22.95c.15.27.35.47.59.62.25.14.53.22.84.22Z"></path>
        <path class="cls-43" d="M106.02,5.49c.51,0,.97.1,1.37.31s.72.52.95.94.35.96.35,1.61v3.7h-1.87v-3.41c0-.52-.11-.9-.34-1.15-.23-.25-.55-.37-.97-.37-.3,0-.56.06-.8.19-.24.12-.42.31-.55.57-.13.26-.2.58-.2.98v3.19h-1.87v-6.46h1.79v1.79l-.34-.54c.23-.43.56-.76,1-1,.43-.23.92-.35,1.48-.35Z"></path>
        <path class="cls-43" d="M116.86,12.14c-.69,0-1.3-.14-1.83-.43s-.95-.68-1.26-1.18c-.31-.5-.46-1.07-.46-1.71s.15-1.22.46-1.72c.31-.5.73-.89,1.26-1.18s1.14-.43,1.83-.43,1.29.14,1.82.43.96.67,1.26,1.17c.3.5.46,1.07.46,1.73s-.15,1.21-.46,1.71c-.3.5-.72.89-1.26,1.18s-1.14.43-1.82.43ZM116.86,10.6c.31,0,.59-.07.84-.22.25-.14.44-.35.59-.62.14-.27.22-.59.22-.95s-.07-.7-.22-.96c-.14-.26-.34-.47-.59-.61-.25-.14-.53-.22-.84-.22s-.59.07-.84.22c-.25.14-.45.35-.59.61-.15.26-.22.58-.22.96s.07.69.22.95c.15.27.35.47.59.62.25.14.53.22.84.22Z"></path>
        <path class="cls-43" d="M120.87,7.17v-1.44h4.48v1.44h-4.48ZM121.87,12.04v-6.6c0-.73.22-1.31.65-1.75.43-.44,1.05-.65,1.85-.65.27,0,.53.03.79.08s.47.14.64.26l-.49,1.36c-.1-.07-.22-.13-.35-.17-.13-.04-.26-.06-.41-.06-.27,0-.48.08-.63.23-.15.16-.22.39-.22.7v.6l.05.8v5.18h-1.87Z"></path>
      </g>
      <g>
        <g>
          <ellipse class="cls-2" cx="26.63" cy="26.47" rx="26.31" ry="26.15"></ellipse>
          <g>
            <ellipse class="cls-45" cx="26.63" cy="26.47" rx="24.52" ry="24.37"></ellipse>
            <g>
              <polygon class="cls-1" points="12.23 36.95 12.62 39.49 14.79 41.4 17.99 40.64 15.11 37.4 12.23 36.95"></polygon>
              <path class="cls-51" d="M51.16,26.47c0-2.89-.51-5.66-1.44-8.23l-6.87-2.85-3.9-7.16-5.6,2.51-6.56-8.57-10.33,11.7-3.64-.36-5.9,3.38-3.22.99c-1.01,2.67-1.57,5.57-1.57,8.6,0,.02,0,.04,0,.06h49.04s0-.04,0-.06Z"></path>
              <g>
                <polygon class="cls-1" points="12.23 36.95 12.62 39.49 14.79 41.4 17.99 40.64 15.11 37.4 12.23 36.95"></polygon>
                <path class="cls-21" d="M2.11,26.53c0,.32.01.64.02.95.12,2.79.71,5.47,1.69,7.94l4.06,1.08,1.98,4.39,5.25,2.67,3.33-.32,2.57,6.95s.05.01.08.02l11.85-2.85,3.85-6.33,1.26-.46,1.98-1.59,8.99-2.53c1.24-2.75,1.99-5.78,2.12-8.96.01-.32.02-.63.02-.95H2.11ZM14.79,41.4l-2.18-1.91-.38-2.54,2.88.45,2.88,3.24-3.2.76Z"></path>
              </g>
            </g>
          </g>
        </g>
        <g>
          <path class="cls-15" d="M4.71,23.01s-.03,0-.05,0c.02,0,.03,0,.05,0,.02-.02.03-.03.05-.05-.02.02-.03.03-.05.05Z"></path>
          <path class="cls-15" d="M26.55,21.98s.03-.07.05-.1c-.02.03-.03.07-.05.1h0Z"></path>
          <path class="cls-15" d="M11.63,25.74s-.03-.08-.04-.11c.01.04.03.08.04.11.03,0,.06,0,.1,0-.03,0-.06,0-.1,0Z"></path>
          <path class="cls-15" d="M47.9,19.01h0c-.03.31-.06.62-.09.94.03-.31.06-.62.09-.94Z"></path>
          <path class="cls-65" d="M47.95,18.62v.29c.05-.03.12-.05.16-.09.33-.28.67-.55,1-.83l-1.01-.42c-.03.26-.07.51-.1.77-.01.1-.03.19-.05.29Z"></path>
          <path class="cls-17" d="M49.03,26.18c-.37.05-.74.1-1.11.09-.17,0-.34.03-.51.05-.04,0-.06.06-.09.09.02.04.05.07.07.11h3.77s0-.04,0-.06c0-.17,0-.34-.01-.5-.23.02-.46.04-.69.07-.47.05-.95.09-1.42.15Z"></path>
          <path class="cls-58" d="M47.9,19.01c-.03.31-.06.62-.09.94-.02.21-.04.42-.05.63-.02.27-.03.55-.05.82-.02.26-.06.53-.09.79-.03.29-.04.58-.06.87,0,.1-.02.21-.03.31-.04.37-.08.74-.12,1.1-.03.28-.06.56-.09.84-.02.29-.04.58-.06.87,0,.08,0,.16,0,.24.02,0,.03,0,.05,0,.03-.03.06-.08.09-.09.17-.03.34-.05.51-.05.37,0,.74-.04,1.11-.09.47-.06.95-.1,1.42-.15.23-.02.46-.04.69-.07-.03-1.59-.22-3.15-.54-4.65-.38-.33-.77-.65-1.15-.98-.52-.44-1.03-.88-1.54-1.32Z"></path>
          <path class="cls-67" d="M48.12,18.82s-.11.06-.16.09c-.02,0-.03,0-.05,0,0,.02,0,.03,0,.05,0,.02,0,.03,0,.05h0c.51.44,1.03.88,1.54,1.32.38.33.77.65,1.15.98-.23-1.05-.52-2.08-.88-3.08l-.6-.25c-.33.28-.66.56-1,.83Z"></path>
          <path class="cls-67" d="M47.9,19.01h0c.51.44,1.03.88,1.54,1.32-.52-.44-1.03-.88-1.54-1.32Z"></path>
          <path class="cls-14" d="M26.86,4.82c.08.1.15.2.22.31,0,.19,0,.39,0,.58.1-.17.03-.36.05-.54.02-.03.03-.06.05-.1h0s.07-.1.1-.15c.02-.05.03-.11.06-.16.22-.34.43-.69.65-1.03l-1.21-1.58-1.11,1.26c.15.17.3.34.45.51.25.29.5.59.75.89Z"></path>
          <path class="cls-61" d="M27.28,4.93c.14-.1.28-.19.41-.29.2-.16.4-.33.59-.5l-.3-.4c-.22.34-.43.69-.65,1.03-.03.05-.04.11-.06.16Z"></path>
          <path class="cls-59" d="M47.78,18.81s.05.1.07.15c.02,0,.03,0,.05,0,0-.02,0-.03,0-.05.02-.1.03-.2.05-.29.02-.1.04-.19.05-.29.04-.26.07-.51.1-.77l-1.56-.65c.26.4.51.81.77,1.21.15.23.31.45.46.68Z"></path>
          <path class="cls-58" d="M47.9,18.91s.03,0,.05,0v-.29c-.02.1-.03.2-.05.29Z"></path>
          <path class="cls-55" d="M27.28,4.93s-.07.1-.1.15c.02.02.04.04.06.05s.04.03.07.04c.63.12,1.25.24,1.88.36.06.01.13.03.19.04l-1.09-1.43c-.2.17-.39.34-.59.5-.13.11-.28.2-.41.29Z"></path>
          <path class="cls-55" d="M27.28,4.93s-.07.1-.1.15h0s0,0,0,0c.03-.05.07-.1.1-.15Z"></path>
          <path class="cls-11" d="M47.28,26.53h.11s-.05-.07-.07-.11c-.02,0-.03,0-.05,0h0s0,.07,0,.11Z"></path>
          <path class="cls-63" d="M47.86,19.01c-.1.14-.19.3-.31.43-.42.47-.84.94-1.26,1.41-.32.35-.64.7-.96,1.06-.29.33-.58.67-.87,1.01-.15.17-.3.34-.45.51-.4.45-.81.9-1.21,1.36-.17.19-.35.38-.52.57-.34.39-.68.78-1.03,1.16,0,0,0,0,0,.01h3.92c.15-.02.3-.03.45-.05.22-.02.43-.04.65-.06.32-.02.65-.04.97-.05.02-.06.03-.13.05-.19.02-.29.03-.58.06-.87.02-.28.06-.56.09-.84.04-.37.08-.74.12-1.1.01-.1.02-.21.03-.31.02-.29.03-.58.06-.87.02-.26.06-.53.09-.79.02-.27.03-.55.05-.82.02-.21.03-.42.05-.63.03-.31.06-.62.09-.94,0-.02,0-.03,0-.05-.02,0-.03,0-.05,0,0,.02,0,.03,0,.05Z"></path>
          <path class="cls-11" d="M47.27,26.42h0c0-.08,0-.16,0-.24-.02.06-.03.13-.05.19.02.02.03.03.05.05Z"></path>
          <path class="cls-10" d="M4.45,23.18c.07-.03.14-.08.21-.13-.21-.05-.42-.1-.64-.14-.54-.09-1.07-.18-1.61-.27-.08.53-.15,1.07-.2,1.61.42-.2.83-.4,1.25-.6.33-.16.66-.31.99-.47Z"></path>
          <path class="cls-3" d="M4.66,23.06s0-.03,0-.05c-.18-.17-.36-.35-.54-.52-.42-.38-.85-.75-1.27-1.13-.05-.05-.11-.1-.16-.15-.1.47-.2.95-.28,1.43.54.09,1.07.17,1.61.27.21.04.42.09.64.14Z"></path>
          <path class="cls-48" d="M22.75,8.83c.06.02.13.03.2.05.03.02.06.03.1.05-.07-.39-.15-.78-.22-1.17-.06-.31-.11-.62-.17-.93l-1.41,1.6c.32.08.64.17.96.25.18.05.36.1.54.15Z"></path>
          <path class="cls-47" d="M23.04,8.92h0s.03,0,.05,0c.08-.23.3-.35.46-.52.07-.07.16-.13.24-.21.55-.51,1.1-1.03,1.65-1.54.22-.2.44-.41.66-.61.33-.31.66-.62,1-.92-.07-.1-.14-.21-.22-.31-.25-.3-.5-.59-.75-.89-.15-.17-.3-.34-.45-.51l-3.01,3.41c.06.31.11.62.17.93.07.39.14.78.22,1.17Z"></path>
          <path class="cls-64" d="M47.27,26.42s-.03-.03-.05-.05c-.32.02-.65.03-.97.05-.22.01-.43.04-.65.06-.15.02-.3.03-.45.05h2.13s0-.07,0-.11Z"></path>
          <path class="cls-8" d="M22.37,9.18c.13-.06.27-.11.4-.18.06-.03.11-.09.17-.13-.06-.02-.13-.03-.2-.05-.18-.05-.36-.1-.54-.15-.32-.09-.64-.17-.96-.25l-1.86,2.1c.33-.15.67-.29,1-.44.66-.3,1.32-.6,1.99-.91Z"></path>
          <path class="cls-44" d="M12.93,13.51h-.12s-.87.49-.87.49c.23-.11.46-.22.69-.33.1-.05.2-.1.3-.16Z"></path>
          <path class="cls-52" d="M26.99,7.21c-.02.43-.03.86-.05,1.29-.02.36-.06.72-.09,1.09,0,.02,0,.05,0,.07-.02.43-.03.86-.05,1.29-.02.39-.06.79-.09,1.18,0,.02,0,.05,0,.07-.02.44-.03.87-.05,1.31-.03.55-.07,1.1-.1,1.65-.02.26-.03.52-.05.77-.02.3-.03.6-.05.9,0,.19,0,.38,0,.58,0,.07-.03.14-.05.2v.15c0,.15,0,.29,0,.44,0,.13.04.16.17.13.28-.06.57-.14.85-.2.55-.11,1.09-.21,1.64-.33.42-.09.83-.2,1.25-.29.75-.16,1.5-.32,2.25-.48.5-.11.99-.23,1.49-.34.62-.13,1.23-.26,1.85-.38.03,0,.07.02.11.03.12,0,.15-.09.15-.19-.45-.54-.9-1.08-1.35-1.62-.38-.46-.74-.94-1.12-1.4-.4-.49-.82-.98-1.22-1.48-.23-.27-.44-.56-.66-.84-.2-.25-.42-.49-.63-.74-.32-.39-.65-.79-.97-1.18-.33-.4-.65-.8-.98-1.2-.23-.28-.45-.57-.68-.85-.27-.33-.55-.66-.82-.99-.14-.17-.28-.34-.42-.5-.05-.06-.12-.11-.18-.17-.02.18.05.37-.05.54-.03.48-.06.97-.09,1.45,0,.02,0,.03,0,.05Z"></path>
          <path class="cls-60" d="M27.32,5.16s-.05-.02-.07-.04-.04-.04-.06-.05c-.02.03-.03.06-.05.1.06.05.12.1.18.17.14.17.28.33.42.5.27.33.55.66.82.99.23.28.45.57.68.85.33.4.65.8.98,1.2.32.39.64.79.97,1.18.21.25.42.49.63.74.22.28.44.56.66.84.4.49.82.98,1.22,1.48.38.46.74.94,1.12,1.4.44.54.9,1.08,1.35,1.62.03.05.06.1.1.15.02-.05.03-.1.05-.15.03-.08.06-.17.1-.25.47-.88.94-1.75,1.41-2.63.17-.32.34-.65.51-.97.47-.87.95-1.74,1.42-2.61l-.8-1.47-5.6,2.51-3.95-5.17c-.06-.01-.13-.03-.19-.04-.63-.12-1.25-.24-1.88-.36Z"></path>
          <path class="cls-60" d="M27.18,5.07h0s.04.04.06.05c-.02-.02-.04-.04-.06-.05Z"></path>
          <path class="cls-46" d="M24.37,12.69c.15.5.36.99.54,1.48.26.75.52,1.5.78,2.25.2.56.39,1.11.59,1.67.02.04.02.09.03.14.02,0,.03,0,.05,0,.02-.16-.05-.33.05-.49v-.15c0-.19,0-.38,0-.58,0-.07.03-.14.05-.2.02-.3.03-.6.05-.9.01-.26.03-.52.05-.77.03-.55.07-1.1.1-1.65.02-.44.03-.87.05-1.31,0-.02,0-.05,0-.07.03-.39.07-.79.09-1.18.02-.43.03-.86.05-1.29,0-.02,0-.05,0-.07.03-.36.07-.72.09-1.09.02-.43.03-.86.05-1.29,0-.02,0-.03,0-.05.03-.48.06-.97.09-1.45,0-.19,0-.39,0-.58-.33.31-.66.62-1,.92-.22.2-.44.41-.66.61-.55.51-1.1,1.03-1.65,1.54-.08.07-.17.13-.24.21-.16.17-.38.28-.46.52.09.3.16.61.27.91.35.95.73,1.89,1.02,2.86Z"></path>
          <path class="cls-68" d="M37.81,13.26c-.47.88-.94,1.75-1.41,2.63-.04.08-.07.16-.1.25.03.13.16.12.25.15.67.16,1.34.32,2,.48.86.21,1.73.41,2.59.62.78.19,1.56.38,2.33.56.68.16,1.35.31,2.03.48.58.14,1.16.28,1.74.42.2.05.4.11.61.16,0-.02,0-.03,0-.05-.02-.05-.04-.1-.07-.15-.15-.23-.32-.45-.46-.68-.26-.4-.51-.81-.77-1.21l-3.7-1.54-3.11-5.7c-.47.87-.95,1.74-1.42,2.61-.17.32-.34.65-.51.97Z"></path>
          <path class="cls-5" d="M4.09,26.53c.15-.84.28-1.68.43-2.52.06-.33.13-.67.19-1-.02,0-.03,0-.05,0,0,.02,0,.03,0,.05-.07.04-.13.09-.21.13-.33.16-.66.31-.99.47-.42.2-.83.4-1.25.6-.07.73-.11,1.47-.11,2.21,0,.02,0,.04,0,.06h1.98Z"></path>
          <path class="cls-66" d="M38.02,20.35c.21.47.42.95.63,1.42.26.59.51,1.19.77,1.78.17.39.36.78.53,1.17.27.6.53,1.2.79,1.81h.48s0,0,0-.01c.34-.39.68-.78,1.03-1.16.17-.19.35-.38.52-.57.41-.45.81-.9,1.21-1.36.15-.17.3-.34.45-.51.29-.34.58-.68.87-1.01.32-.36.64-.71.96-1.06.42-.47.85-.94,1.26-1.41.12-.13.21-.28.31-.43-.2-.05-.4-.11-.61-.16-.58-.14-1.16-.29-1.74-.42-.68-.16-1.35-.31-2.03-.48-.78-.19-1.56-.38-2.33-.56-.86-.21-1.73-.41-2.59-.62-.67-.16-1.34-.32-2-.48-.1-.02-.22-.01-.25-.15-.02.05-.03.1-.05.15.29.66.58,1.32.87,1.98.3.7.6,1.4.91,2.09Z"></path>
          <path class="cls-89" d="M4.11,22.49c.19.17.36.34.54.52.02,0,.03,0,.05,0,.02-.02.03-.03.05-.05.12-.49.24-.97.37-1.46.19-.74.39-1.47.59-2.2.19-.74.39-1.48.58-2.23l-2.6.8c-.41,1.08-.74,2.19-1,3.34.05.05.11.1.16.15.42.38.85.75,1.27,1.13Z"></path>
          <path class="cls-9" d="M19.75,15.47c.3.16.6.32.9.48.03,0,.06,0,.1,0,.22-.68.45-1.35.67-2.03.35-1.05.69-2.11,1.04-3.16.2-.61.39-1.22.59-1.83h0s-.06-.03-.1-.05c-.06.04-.11.1-.17.13-.13.07-.27.12-.4.18-.66.3-1.32.61-1.99.91-.33.15-.67.29-1,.44l-2.87,3.25c.68.35,1.36.71,2.04,1.07.4.21.79.41,1.19.62Z"></path>
          <path class="cls-51" d="M21.06,16.17c.28.11.56.21.84.32.24.09.48.19.72.29.12.05.23.1.35.15.33.14.67.27,1,.4.39.17.78.34,1.18.51.39.16.77.32,1.16.48v-.1s0-.1-.03-.14c-.19-.56-.39-1.11-.59-1.67-.26-.75-.52-1.5-.78-2.25-.18-.5-.38-.98-.54-1.48-.29-.97-.67-1.91-1.02-2.86-.11-.3-.18-.6-.27-.91h-.05c-.19.61-.39,1.22-.59,1.83-.34,1.05-.69,2.11-1.04,3.16-.22.68-.45,1.35-.67,2.03l.05.1c.09.04.17.09.26.13Z"></path>
          <path class="cls-56" d="M26.55,22.03c.07.04.14.07.2.13.2.21.4.43.6.64.05.05.1.1.15.16.83.86,1.65,1.72,2.48,2.58.32.33.63.66.95,1h9c-.21-.07-.42-.14-.63-.21-.17-.06-.33-.12-.5-.18-.51-.18-1.03-.35-1.54-.53-.23-.08-.46-.17-.69-.25-.41-.14-.83-.27-1.24-.41-.22-.07-.44-.16-.66-.24-.54-.19-1.09-.37-1.63-.56-1.08-.38-2.15-.76-3.23-1.14-.41-.14-.83-.28-1.24-.41-.62-.21-1.24-.41-1.86-.62-.04-.01-.07-.06-.11-.09-.02.03-.03.07-.05.1,0,.02,0,.03,0,.05Z"></path>
          <path class="cls-62" d="M36.01,16.33c-.39.23-.78.47-1.17.7-.5.29-.99.58-1.49.87-.5.29-1.01.59-1.51.88-.55.32-1.1.65-1.66.97-.78.46-1.56.93-2.34,1.39-.36.21-.73.42-1.1.63-.05.03-.1.08-.15.12.04.03.07.08.11.09.62.21,1.24.42,1.86.62.41.14.83.27,1.24.41,1.08.38,2.15.76,3.23,1.14.54.19,1.09.37,1.63.56.22.08.44.16.66.24.41.14.83.27,1.24.41.23.08.46.17.69.25.51.18,1.02.35,1.54.53.17.06.33.12.5.18.21.07.42.14.63.21h.82c-.26-.6-.53-1.21-.79-1.81-.17-.39-.36-.78-.53-1.17-.26-.59-.51-1.19-.77-1.78-.21-.47-.42-.94-.63-1.42-.3-.7-.6-1.4-.91-2.09-.29-.66-.58-1.32-.87-1.98-.03-.05-.06-.1-.1-.15,0,.1-.02.19-.15.19Z"></path>
          <path class="cls-57" d="M7.58,18.86c.25.41.51.82.76,1.24.29.49.58.99.87,1.49.39.65.78,1.31,1.17,1.96.39.65.77,1.31,1.16,1.97.02.03.04.07.05.11s.03.08.04.11c.03,0,.06,0,.1,0,.02-.03.03-.07.05-.1,0-.03,0-.06,0-.1.02-.06.03-.13.05-.19.08-.37.16-.74.24-1.11.16-.78.33-1.57.49-2.35.13-.62.25-1.23.38-1.85.14-.67.29-1.34.43-2.02.19-.91.37-1.82.56-2.73.11-.55.23-1.1.34-1.65l-1.34-.13c-.1.05-.2.1-.3.16-.23.11-.46.22-.69.33l-5.03,2.88-.41.13c.12.22.25.44.37.66.23.4.47.79.71,1.19Z"></path>
          <path class="cls-7" d="M13.37,18.02c-.14.67-.29,1.34-.43,2.02-.13.62-.25,1.23-.38,1.85-.16.78-.33,1.57-.49,2.35-.08.37-.16.74-.24,1.11-.02.06-.03.13-.05.19,0,.03,0,.06,0,.1.02.06.03.13.05.19.03-.07.05-.16.09-.21.22-.27.45-.53.69-.79.46-.5.93-.99,1.39-1.49.35-.37.69-.75,1.03-1.13.38-.42.77-.83,1.15-1.25.37-.4.73-.8,1.1-1.2s.73-.8,1.1-1.2c.33-.36.66-.73,1-1.09.39-.43.79-.85,1.18-1.28.07-.07.14-.14.08-.25-.3-.16-.6-.32-.9-.48-.39-.21-.79-.41-1.19-.62-.68-.36-1.36-.71-2.04-1.07l-.07.08-2.18-.22c-.11.55-.23,1.1-.34,1.65-.19.91-.37,1.82-.56,2.73Z"></path>
          <path class="cls-13" d="M4.91,23.12c.38.15.77.31,1.15.46.46.18.92.37,1.38.55.8.31,1.6.61,2.4.93.48.19.96.39,1.44.58.1.04.2.07.3.1.02,0,.03,0,.05,0-.01-.04-.03-.08-.04-.11s-.03-.08-.05-.11c-.38-.66-.77-1.31-1.16-1.97-.39-.65-.78-1.31-1.17-1.96-.29-.49-.58-.99-.87-1.49-.25-.42-.51-.83-.76-1.24-.24-.39-.48-.79-.71-1.19-.13-.22-.25-.44-.37-.66l-.21.06c-.19.74-.38,1.49-.58,2.23-.19.74-.39,1.47-.59,2.2-.13.48-.24.97-.37,1.46,0,.1.08.13.16.16Z"></path>
          <path class="cls-15" d="M26.45,21.16c.02.13.03.26.05.39.02.15.03.29.05.44.02-.03.03-.07.05-.1.05-.04.09-.09.15-.12.36-.21.73-.41,1.1-.63.78-.46,1.56-.93,2.34-1.39.55-.33,1.1-.65,1.66-.97.5-.29,1.01-.59,1.51-.88.5-.29.99-.58,1.49-.87.39-.23.78-.46,1.17-.7-.04-.01-.08-.04-.11-.03-.62.12-1.23.25-1.85.38-.5.11-.99.23-1.49.34-.75.16-1.5.32-2.25.48-.42.09-.83.21-1.25.29-.54.12-1.09.21-1.64.33-.28.06-.57.14-.85.2-.13.03-.16,0-.17-.13,0-.15,0-.29,0-.44-.1.15-.03.33-.05.49.02.57.03,1.14.05,1.72.01.4.03.8.05,1.21Z"></path>
          <path class="cls-15" d="M26.45,16.82c-.02.07-.04.13-.05.2,0,.19,0,.38,0,.58.02-.07.04-.13.05-.2,0-.19,0-.38,0-.58Z"></path>
          <path class="cls-53" d="M25.82,18.72c-.6.4-1.2.8-1.8,1.19-.16.11-.34.19-.51.29-.12.07-.26.13-.32.28.33.14.67.28,1,.43.56.24,1.13.48,1.69.73.19.08.38.17.57.26v-.73c-.02-.4-.03-.8-.05-1.21-.02-.57-.03-1.14-.05-1.72-.02,0-.03,0-.05,0v.1c-.11.19-.32.27-.49.39Z"></path>
          <path class="cls-12" d="M10.62,26.53c.09-.06.18-.12.28-.19.21-.14.42-.28.63-.41.09-.06.1-.11.05-.2-.1-.03-.2-.06-.3-.1-.48-.19-.96-.39-1.44-.58-.8-.31-1.6-.61-2.4-.93-.46-.18-.92-.36-1.38-.55-.38-.15-.76-.31-1.15-.46-.08-.03-.15-.06-.16-.16-.02.02-.03.03-.05.05-.06.33-.13.66-.19,1-.14.84-.28,1.68-.43,2.52h6.53Z"></path>
          <path class="cls-4" d="M13.92,26.53h8.87s0-.06,0-.09c.03-.43.06-.85.09-1.28,0-.02,0-.03,0-.05.02-.5.03-1,.05-1.5.02-.44.06-.88.09-1.33,0-.02,0-.03,0-.05.02-.49.03-.98.05-1.48,0-.09.03-.19.05-.28h0c-.45-.86-.91-1.71-1.36-2.57-.24-.45-.48-.9-.72-1.35-.09-.17-.17-.34-.26-.52l-.05-.1s-.06,0-.1,0c.06.11-.02.18-.08.25-.39.43-.79.85-1.18,1.28-.33.36-.66.73-1,1.09-.37.4-.73.8-1.1,1.2s-.73.8-1.1,1.2c-.38.42-.77.83-1.15,1.25-.34.38-.69.75-1.03,1.13-.46.5-.93.99-1.39,1.49-.24.26-.46.52-.69.79-.05.06-.06.14-.09.21.39.13.78.27,1.17.4.31.1.61.2.92.3Z"></path>
          <path class="cls-50" d="M23.5,20.19c.17-.1.35-.18.51-.29.6-.39,1.21-.79,1.8-1.19.17-.12.38-.2.49-.39-.39-.16-.77-.32-1.16-.48-.39-.17-.78-.34-1.18-.51-.33-.14-.67-.27-1-.4-.12-.05-.23-.1-.35-.15-.24-.1-.48-.2-.72-.29-.28-.11-.56-.21-.84-.32-.09-.04-.17-.08-.26-.13.09.17.17.35.26.52.24.45.48.9.72,1.35.45.86.91,1.71,1.36,2.57h.05c.06-.15.19-.21.32-.28Z"></path>
          <path class="cls-50" d="M23.14,20.47h0c-.45-.86-.91-1.71-1.36-2.57.45.86.91,1.71,1.36,2.57Z"></path>
          <path class="cls-6" d="M12.59,26.53h1.33c-.31-.1-.61-.2-.92-.3-.39-.13-.78-.26-1.17-.4-.02-.06-.03-.13-.05-.19-.02.03-.03.07-.05.1,0,.27,0,.53-.02.79h.89Z"></path>
          <path class="cls-16" d="M11.73,25.74s-.06,0-.1,0c-.02,0-.03,0-.05,0,.05.08.04.14-.05.2-.21.13-.42.27-.63.41-.09.06-.18.12-.28.19h1.09c.02-.26.03-.53.02-.79Z"></path>
          <path class="cls-15" d="M27.5,22.96c-.05-.05-.1-.1-.15-.16-.2-.21-.39-.43-.6-.64-.05-.05-.13-.09-.2-.13.32.78.63,1.56.95,2.34.3.72.6,1.44.89,2.16h2.53c-.32-.33-.63-.67-.95-1-.82-.86-1.65-1.72-2.48-2.58Z"></path>
          <path class="cls-54" d="M26.55,22.03s0-.03,0-.05h0s0,0,0,0c-.02-.15-.03-.29-.05-.44-.02-.13-.03-.26-.05-.39v.73c-.05.13-.09.26-.15.38-.35.71-.7,1.41-1.06,2.11-.27.53-.56,1.06-.84,1.59-.07.13-.11.27-.18.4-.03.05-.05.11-.08.16h4.25c-.3-.72-.6-1.44-.89-2.16-.32-.78-.64-1.56-.95-2.34Z"></path>
          <path class="cls-54" d="M26.55,21.98c-.02-.15-.03-.29-.05-.44.02.15.03.29.05.44,0,0,0,0,0,0Z"></path>
          <path class="cls-49" d="M24.23,26.37c.07-.13.11-.27.18-.4.28-.53.57-1.06.84-1.59.36-.7.71-1.41,1.06-2.11.06-.12.1-.26.15-.38-.19-.09-.38-.18-.57-.26-.56-.24-1.13-.49-1.69-.73-.33-.14-.67-.28-1-.43h-.05c-.02.09-.04.19-.05.28-.02.49-.03.98-.05,1.48,0,.02,0,.03,0,.05-.03.44-.07.88-.09,1.33-.03.5-.03,1-.05,1.5,0,.02,0,.03,0,.05-.03.43-.07.85-.09,1.28,0,.03,0,.06,0,.09h1.36c.03-.05.05-.11.08-.16Z"></path>
          <polygon class="cls-1" points="15.11 37.4 12.23 36.95 12.34 37.67 12.62 39.49 14.79 41.4 15.03 41.35 17.99 40.64 16.98 39.5 15.14 37.43 15.11 37.4"></polygon>
          <path class="cls-33" d="M34.88,37.3c0-.1,0-.19,0-.29,0,.1,0,.19,0,.29h0Z"></path>
          <path class="cls-33" d="M9.97,29.56c-.05-.48-.1-.95-.16-1.43.05.48.1.95.16,1.43.02,0,.04,0,.06,0-.02,0-.04,0-.06,0Z"></path>
          <path class="cls-33" d="M33.78,43.24c.02-.08.04-.16.06-.23l-.06.23h0Z"></path>
          <path class="cls-33" d="M27.38,30.02c-.02.08-.04.16-.06.23.02-.08.04-.16.06-.23-.21-.56-.42-1.12-.63-1.68.21.56.42,1.12.63,1.68Z"></path>
          <path class="cls-33" d="M48.84,36.49c.02-.12.04-.24.06-.35.08-.01.17-.02.25-.03h0c-.08.01-.17.02-.25.03-.02.12-.04.24-.06.35Z"></path>
          <path class="cls-20" d="M47.95,30.38c-.36-.35-.73-.69-1.1-1.04-.14-.13-.3-.24-.45-.36.12.38.24.75.37,1.13.17.48.35.96.52,1.45.44,1.26.88,2.52,1.32,3.78.09.25.16.5.24.74.02.02.04.04.06.06.08-.01.17-.02.25-.03.48-1.11.88-2.26,1.19-3.44-.38-.36-.76-.72-1.14-1.09-.42-.4-.84-.8-1.26-1.2Z"></path>
          <path class="cls-25" d="M48.84,36.49l.16-.05c.05-.11.1-.22.15-.34-.08.01-.17.02-.25.03-.02.12-.04.24-.06.35Z"></path>
          <path class="cls-33" d="M26.74,28.35c-.23-.61-.45-1.21-.68-1.82h-7.02c-.12.1-.25.2-.37.3-.35.29-.7.57-1.06.86-.54.44-1.08.87-1.62,1.3-.07.06-.13.14-.19.22.13.02.27.05.4.06.46.04.92.08,1.38.11.32.02.63.04.95.07.46.04.92.07,1.38.11.33.02.65.04.98.07.42.03.84.07,1.27.11.3.02.6.06.89.06.49,0,.98.05,1.47.11.36.04.73.04,1.1.07.37.03.75.07,1.12.1.13.01.27.01.41.01.12,0,.18.05.18.17.02-.08.04-.16.06-.23-.21-.56-.42-1.12-.63-1.68Z"></path>
          <path class="cls-70" d="M17.61,27.69c.35-.28.7-.57,1.06-.86.12-.1.25-.2.37-.3h-2.89c-.08.5-.16,1.01-.23,1.51-.06.39-.12.78-.18,1.17.02.02.04.04.06.06,0-.02,0-.04,0-.06.06-.07.12-.16.19-.22.54-.44,1.08-.87,1.62-1.3Z"></path>
          <path class="cls-83" d="M2.11,26.53c0,.16,0,.32.01.49.05-.16.1-.32.15-.49h-.16Z"></path>
          <path class="cls-87" d="M16.14,26.53h-3.55c-.07.08-.14.16-.21.24-.52.61-1.03,1.22-1.55,1.84-.27.32-.54.63-.8.95h.35c.5-.04,1-.07,1.5-.11.03,0,.06,0,.09,0,.47-.02.94-.03,1.41-.06.6-.03,1.21-.08,1.81-.12.16-.01.32-.04.49-.05.02,0,.04,0,.06,0,.06-.39.12-.78.18-1.17.08-.5.16-1.01.23-1.51Z"></path>
          <path class="cls-84" d="M10.03,29.56c.27-.32.54-.63.8-.95.52-.61,1.03-1.23,1.55-1.84.07-.08.14-.16.21-.24h-2.94c.03.3.06.61.09.91.02.23.05.46.08.69.05.48.1.95.16,1.43.02,0,.04,0,.06,0Z"></path>
          <path class="cls-74" d="M4.42,29.97c.53-.04,1.06-.08,1.59-.11.38-.02.75-.04,1.13-.06.49-.03.98-.08,1.47-.11.43-.03.87-.04,1.3-.07v-.06c-.28-.25-.56-.5-.85-.74-.42-.35-.84-.7-1.27-1.05-.5-.41-1-.82-1.49-1.23,0,0,0,0,0,0H2.27c-.05.16-.1.32-.15.49.02,1.05.11,2.08.26,3.08.33-.02.67-.05,1-.07.35-.02.69-.04,1.04-.06Z"></path>
          <path class="cls-82" d="M9.97,29.56c-.05-.48-.1-.95-.16-1.43-.03-.23-.05-.46-.08-.69-.03-.3-.06-.61-.09-.91h-3.35s0,0,0,0c.5.41,1,.82,1.49,1.23.42.35.85.7,1.27,1.05.29.24.57.49.85.74.02,0,.04,0,.06,0h0Z"></path>
          <path class="cls-34" d="M49.25,28.68c-.39.03-.77.04-1.16.06-.35.03-.69.07-1.04.1-.22.02-.44.07-.65-.04,0-.02,0-.04,0-.06-.02.02-.04.04-.06.06.02.06.04.12.06.17.15.12.31.23.45.36.37.34.73.69,1.1,1.04.42.4.84.8,1.26,1.2.38.36.76.72,1.14,1.09.35-1.33.59-2.71.71-4.13-.13.01-.26.02-.4.03-.47.04-.94.08-1.41.11Z"></path>
          <path class="cls-29" d="M40.86,26.53h-4.42c-.56.93-1.12,1.86-1.67,2.79-.01.02-.04.04-.06.06.1.04.19.1.29.11.46.05.92.08,1.38.13.4.04.8.1,1.2.15.3.03.59.05.89.08.3.03.59.07.89.1.29.03.57.05.86.07.2.02.4.04.6.06.14.02.27.04.41.06h0c.02.12.04.23.06.35.02.12.04.23.06.35,0-.21,0-.43,0-.64-.08-.61-.15-1.22-.24-1.83-.08-.61-.17-1.23-.25-1.84Z"></path>
          <path class="cls-39" d="M36.44,26.53h-2.1c.06.49.12.98.18,1.47.05.38.09.77.13,1.15.02.08.04.16.06.23.02-.02.04-.04.06-.06.56-.93,1.12-1.86,1.67-2.79Z"></path>
          <path class="cls-38" d="M28.65,28.38c.44-.61.89-1.23,1.33-1.85h-3.92c.23.61.46,1.21.68,1.82.21.56.42,1.12.63,1.68.02,0,.04,0,.06,0,.02-.02.04-.04.06-.06.39-.53.77-1.06,1.16-1.59Z"></path>
          <path class="cls-28" d="M46.41,28.8c.07-.03.15-.05.22-.08.97-.48,1.94-.96,2.9-1.45.49-.25.97-.49,1.45-.74h-3.53c-.35.74-.7,1.48-1.04,2.21,0,.02,0,.04,0,.06Z"></path>
          <path class="cls-25" d="M45.15,26.53h-.5c.17.23.34.47.51.7.38.52.76,1.05,1.13,1.57.02,0,.04,0,.06,0,.02-.02.04-.04.06-.06.35-.74.7-1.48,1.04-2.21h-2.31Z"></path>
          <path class="cls-18" d="M49.53,27.27c-.97.49-1.94.97-2.9,1.45-.07.03-.14.05-.22.08.21.11.43.06.65.04.35-.03.69-.07,1.04-.1.39-.03.77-.04,1.16-.06.47-.03.94-.07,1.41-.11.13-.01.26-.02.4-.03.06-.66.09-1.33.09-2.01h-.17c-.48.25-.97.49-1.45.74Z"></path>
          <path class="cls-26" d="M34.34,26.53h-4.37c-.44.62-.88,1.23-1.33,1.85-.38.53-.77,1.06-1.16,1.59.03.13.14.12.23.11.26-.02.52-.05.78-.07.14-.01.29-.03.43-.04.37-.03.75-.07,1.12-.1.29-.03.58-.05.86-.07.37-.03.75-.07,1.12-.1.23-.02.46-.05.69-.07.37-.03.73-.03,1.1-.06.28-.02.55-.07.83-.11,0-.1,0-.19,0-.29-.04-.38-.08-.77-.13-1.15-.06-.49-.12-.98-.18-1.47Z"></path>
          <path class="cls-22" d="M41.11,28.37c.08.61.16,1.22.24,1.83.02,0,.04,0,.06,0,.03-.04.05-.09.09-.1.47-.12.93-.24,1.4-.36.58-.14,1.16-.29,1.74-.43.5-.12.99-.25,1.49-.38.06-.02.11-.08.17-.12-.38-.52-.75-1.05-1.13-1.57-.17-.23-.34-.47-.51-.7h-3.79c.08.61.17,1.23.25,1.84Z"></path>
          <path class="cls-24" d="M48.85,36.08s-.04,0-.06,0c-.18.06-.36.13-.55.16-.77.14-1.54.27-2.31.41-.66.12-1.33.24-1.99.35-.74.12-1.48.24-2.22.37-.05,0-.1.07-.15.11.31.27.62.53.94.8l6.33-1.78c.02-.12.04-.24.06-.35-.02-.02-.04-.04-.06-.06Z"></path>
          <path class="cls-42" d="M46.12,28.92c-.49.13-.99.26-1.49.38-.58.15-1.16.29-1.74.43-.47.12-.94.23-1.4.36-.04,0-.06.07-.09.1.9.71,1.8,1.43,2.7,2.14.78.62,1.57,1.23,2.35,1.84.77.61,1.54,1.23,2.31,1.84.01.01.02.03.03.05.02,0,.04,0,.06,0-.08-.25-.15-.5-.24-.74-.44-1.26-.88-2.52-1.32-3.78-.17-.48-.35-.96-.52-1.45-.13-.37-.25-.75-.37-1.13-.02-.06-.04-.12-.06-.17-.02,0-.04,0-.06,0-.06.04-.11.11-.17.12Z"></path>
          <path class="cls-19" d="M26.58,31.5c.25-.41.49-.83.74-1.24,0-.12-.06-.17-.18-.17-.14,0-.27,0-.41-.01-.37-.03-.75-.07-1.12-.1-.37-.03-.73-.02-1.1-.07-.49-.06-.98-.11-1.47-.11-.3,0-.6-.04-.89-.06-.42-.03-.84-.07-1.27-.11-.33-.03-.65-.04-.98-.07-.46-.03-.92-.07-1.38-.11-.32-.02-.63-.04-.95-.07-.46-.03-.92-.07-1.38-.11-.13-.01-.27-.04-.4-.06,0,.02,0,.04,0,.06h0c.42.35.84.71,1.26,1.06.52.43,1.04.86,1.56,1.29.39.33.78.66,1.18.98.3.25.61.5.91.76.42.35.84.71,1.26,1.07.27.22.54.44.8.66.31.27.62.54.94.82.06.02.12.04.17.06.02,0,.04,0,.06,0,.34-.57.67-1.15,1.01-1.72.54-.91,1.08-1.82,1.63-2.74Z"></path>
          <path class="cls-21" d="M26.28,36.3c.46.04.92.12,1.37.18.61.08,1.23.12,1.84.19.23.03.46.08.68.11.35.04.71.07,1.06.12.69.09,1.37.22,2.06.28.46.04.92.09,1.37.18.05,0,.11-.03.16-.05h0c-.06-.06-.12-.13-.18-.19-.06-.06-.12-.13-.18-.19-.27-.26-.56-.51-.83-.77-.97-.95-1.93-1.9-2.9-2.84-.63-.62-1.26-1.23-1.9-1.84-.41-.4-.83-.79-1.24-1.18-.07-.07-.12-.17-.17-.26-.02,0-.04,0-.06,0-.02.08-.04.16-.06.23-.25.41-.49.83-.74,1.24-.54.91-1.08,1.82-1.63,2.74-.34.57-.67,1.15-1.01,1.72.02.04.04.08.06.12.09-.02.19-.06.27-.05.67.09,1.33.21,2,.26Z"></path>
          <path class="cls-86" d="M15.11,37.4l.03.03c.06,0,.12,0,.17-.01.36-.03.73-.08,1.09-.11.32-.03.63-.04.95-.07.34-.03.67-.08,1-.1.4-.03.81-.05,1.21-.07-.04-.1-.07-.2-.12-.29-.89-1.81-1.79-3.62-2.69-5.44-.31-.62-.61-1.25-.91-1.88-.03-.06-.05-.13-.07-.19h0s-.04-.04-.06-.06c-.02,0-.04,0-.06,0-.06.29-.29.47-.45.7-.48.68-.99,1.34-1.48,2-.43.58-.88,1.15-1.31,1.73-.8,1.08-1.6,2.16-2.39,3.24-.19.26-.38.51-.57.77-.05.07-.13.12-.19.17.03.13.14.12.23.11.27-.02.54-.04.81-.07.35-.03.71-.07,1.06-.1.32-.03.64-.07.97-.1l-.11-.72,2.88.45Z"></path>
          <path class="cls-69" d="M5.64,35.2c.55-.71,1.11-1.41,1.66-2.12.46-.6.92-1.2,1.38-1.79.38-.5.77-.99,1.15-1.49.04-.05.06-.12.09-.18-.43.02-.87.04-1.3.07-.49.03-.98.07-1.47.11-.38.03-.75.04-1.13.06-.53.03-1.06.08-1.59.11-.35.02-.69.04-1.04.06-.33.02-.67.05-1,.07.28,1.85.77,3.63,1.44,5.33l1.36.36c.15-.2.3-.4.46-.59Z"></path>
          <path class="cls-80" d="M10.04,36.88c.8-1.08,1.59-2.16,2.39-3.24.43-.58.88-1.15,1.31-1.73.5-.66,1-1.33,1.48-2,.16-.22.39-.41.45-.7-.16.02-.32.04-.49.05-.6.04-1.21.08-1.81.12-.47.03-.94.04-1.41.06-.03,0-.06,0-.09,0-.5.04-1,.07-1.5.11-.12.08-.23.08-.35,0-.02,0-.04,0-.06,0h0c-.03.32-.06.63-.09.95,0,.09-.02.17-.02.26-.03.35-.07.71-.1,1.06-.02.25-.05.5-.07.75-.06.6-.12,1.21-.17,1.81-.03.3-.04.6-.06.89-.03.33-.07.65-.1.98,0,.11-.01.21-.01.32,0,.11,0,.21,0,.32-.02.31-.04.62-.06.93.06-.06.14-.11.19-.17.19-.25.38-.51.57-.77Z"></path>
          <path class="cls-84" d="M10.38,29.56h-.35c.12.08.23.08.35,0Z"></path>
          <path class="cls-73" d="M9.16,38s.04,0,.06,0c.02-.34.04-.67.07-1,0-.03.03-.07.05-.1h0c0-.11,0-.21,0-.32,0-.11,0-.21.01-.32.03-.33.07-.65.1-.98.03-.3.04-.6.06-.89.05-.6.11-1.21.17-1.81.02-.25.05-.5.07-.75.03-.35.07-.71.1-1.06,0-.09.02-.17.02-.26.03-.32.06-.63.09-.95-.02,0-.04,0-.06,0v.06c-.03.06-.05.12-.09.18-.38.5-.77.99-1.15,1.49-.46.6-.91,1.2-1.38,1.79-.55.71-1.11,1.41-1.66,2.12-.15.2-.3.39-.46.59l2.7.72.65,1.44c.21-.03.42-.01.62.05Z"></path>
          <path class="cls-73" d="M9.33,36.89h0c0-.11,0-.21,0-.32,0,.11,0,.21,0,.32Z"></path>
          <path class="cls-23" d="M46.45,34.19c-.78-.62-1.57-1.23-2.35-1.84-.9-.71-1.8-1.43-2.7-2.14-.02,0-.04,0-.06,0,0,.21,0,.43,0,.64.02,1.07,0,2.15.07,3.22.05.77.02,1.55.05,2.32.01.37.04.73.06,1.1.02,0,.04,0,.06,0,.05-.04.09-.1.15-.11.74-.13,1.48-.24,2.22-.37.67-.11,1.33-.23,1.99-.35.77-.13,1.54-.26,2.31-.41.19-.03.37-.11.55-.16-.01-.02-.02-.04-.03-.05-.77-.62-1.54-1.23-2.31-1.84Z"></path>
          <path class="cls-35" d="M35.34,37.36h-.31c.02-.2.14-.3.24-.41.69-.78,1.39-1.55,2.09-2.33.57-.64,1.13-1.29,1.7-1.93.42-.48.84-.96,1.26-1.43.26-.3.52-.59.78-.89.05-.06.09-.15.13-.22h0c-.14-.02-.27-.04-.41-.06-.2-.02-.4-.04-.6-.06-.29-.03-.57-.05-.86-.07-.3-.03-.59-.07-.89-.1-.3-.03-.59-.05-.89-.08-.4-.05-.8-.11-1.2-.15-.46-.05-.92-.08-1.38-.13-.1-.01-.2-.07-.29-.11-.02-.08-.04-.16-.06-.23,0,.1,0,.19,0,.29.02.08.05.17.06.25.02.91.04,1.82.06,2.73.02.82,0,1.65.07,2.47.06.71.02,1.41.05,2.12.02.14.04.27.06.41h0s.04,0,.06,0c.58,0,1.16,0,1.75,0-.09-.02-.18-.05-.28-.06-.38,0-.76,0-1.13,0Z"></path>
          <path class="cls-36" d="M41.41,34.06c-.07-1.07-.05-2.14-.07-3.22-.02-.12-.04-.23-.06-.35-.02-.12-.04-.23-.06-.35-.04.07-.08.16-.13.22-.26.3-.52.6-.78.89-.42.48-.84.96-1.26,1.43-.57.64-1.13,1.29-1.7,1.93-.69.78-1.39,1.55-2.09,2.33-.1.11-.22.21-.24.41h.31c.38,0,.76,0,1.13,0,.09,0,.18.04.28.06,1.41,0,2.83,0,4.24,0,.02,0,.04,0,.06,0,.43,0,.41-.03.41.41.02-.12.04-.23.06-.35-.02-.37-.04-.73-.06-1.1-.03-.77,0-1.54-.05-2.32Z"></path>
          <path class="cls-32" d="M32.72,29.62c-.23.02-.46.05-.69.07-.37.04-.75.07-1.12.1-.29.03-.58.05-.86.07-.37.03-.75.07-1.12.1-.14.01-.29.03-.43.04-.26.02-.52.05-.78.07-.09,0-.2.02-.23-.11-.02.02-.04.04-.06.06.06.09.1.19.17.26.41.4.83.79,1.24,1.18.63.61,1.27,1.22,1.9,1.84.97.95,1.93,1.9,2.9,2.84.27.26.55.51.83.77.06.06.12.12.18.19.06.06.12.13.18.19.02,0,.04,0,.06,0,0-.1,0-.19,0-.29-.02-.71.01-1.41-.05-2.12-.07-.82-.05-1.64-.07-2.47-.02-.91-.04-1.82-.06-2.73,0-.08-.04-.17-.06-.25-.28.04-.55.09-.83.11-.36.03-.73.04-1.1.06Z"></path>
          <path class="cls-32" d="M34.83,37.3h0c-.06-.06-.12-.13-.18-.19.06.06.12.13.18.19Z"></path>
          <path class="cls-77" d="M9.16,38c-.2,0-.4,0-.6,0l.19.41c.07-.06.13-.12.2-.18.08-.07.14-.16.21-.24Z"></path>
          <path class="cls-37" d="M41.52,37.47c-.02.12-.04.23-.06.35-.03.26-.06.51-.09.77l1.14-.32c-.31-.27-.62-.53-.94-.8-.02,0-.04,0-.06,0Z"></path>
          <path class="cls-33" d="M25.28,43.06c1.11.01,2.23,0,3.34.07.83.05,1.67-.01,2.49.05.77.06,1.55.03,2.32.05.1,0,.2-.02.23.12l.06-.12c-.33-.25-.65-.51-.99-.75-1.14-.84-2.29-1.68-3.43-2.52-.42-.31-.85-.6-1.27-.91-.86-.63-1.71-1.26-2.56-1.89-.49-.36-.98-.72-1.47-1.09-.02-.04-.04-.08-.06-.12-.02,0-.04,0-.06,0,0,.04,0,.08,0,.12-.02.17-.04.35-.06.52-.03.32-.07.65-.1.97-.03.26-.05.52-.07.78-.06.62-.12,1.24-.17,1.87-.05.54-.08,1.07-.12,1.61-.03.39-.08.78-.11,1.18l.06.06c.66,0,1.32,0,1.98,0Z"></path>
          <path class="cls-76" d="M21.97,34.42c-.42-.35-.84-.71-1.26-1.07-.3-.25-.61-.5-.91-.76-.39-.33-.78-.66-1.18-.98-.52-.43-1.04-.86-1.56-1.29-.42-.35-.84-.71-1.26-1.06.02.06.04.13.07.19.3.63.6,1.25.91,1.88.89,1.81,1.79,3.62,2.69,5.44.05.09.08.2.12.29,0,0,0,0,0,0,.02,0,.04,0,.06,0,.52-.14,1.04-.28,1.56-.41.25-.06.5-.12.76-.18.37-.09.74-.19,1.12-.29.18-.04.36-.08.53-.12.08-.02.15-.05.1-.16-.31-.27-.62-.55-.94-.82-.26-.23-.54-.44-.8-.66Z"></path>
          <path class="cls-75" d="M23.48,40.22c.05-.62.11-1.24.17-1.87.02-.26.05-.52.07-.78.03-.32.07-.65.1-.97.02-.17.04-.35.06-.52,0-.04,0-.08,0-.12-.06-.02-.12-.04-.17-.06.05.11-.03.14-.1.16-.18.04-.36.08-.53.12-.37.09-.74.19-1.12.29-.25.06-.5.12-.76.18-.52.13-1.04.27-1.56.41h0s0,.08,0,.12c.16.24.32.48.47.72.31.5.62,1,.93,1.5.34.55.67,1.11,1,1.66.31.51.63,1.02.94,1.53.08.13.14.27.2.41.02,0,.04,0,.06,0h0c.04-.39.08-.78.11-1.18.04-.54.08-1.07.12-1.61Z"></path>
          <path class="cls-30" d="M34.88,37.3h0s-.04,0-.06,0c-.05.02-.11.06-.16.05-.46-.08-.91-.14-1.37-.18-.69-.06-1.37-.19-2.06-.28-.35-.05-.71-.07-1.06-.12-.23-.03-.45-.09-.68-.11-.61-.07-1.23-.11-1.84-.19-.46-.06-.91-.14-1.37-.18-.67-.05-1.33-.18-2-.26-.09-.01-.18.03-.27.05.49.36.98.72,1.47,1.09.85.63,1.71,1.26,2.56,1.89.42.31.85.6,1.27.91,1.15.84,2.29,1.68,3.43,2.52.33.25.66.5.99.75.02,0,.04,0,.06,0l.06-.23c.08-.45.16-.91.25-1.36.2-1.05.41-2.1.62-3.15.07-.36.15-.72.23-1.07h0s-.04-.08-.06-.12Z"></path>
          <path class="cls-72" d="M19.58,37.07c-.4.02-.81.04-1.21.07-.34.03-.67.07-1,.1-.32.03-.63.04-.95.07-.36.03-.73.07-1.09.11-.06,0-.12,0-.17.01l1.84,2.08c.37-.35.74-.7,1.12-1.05.32-.3.65-.61.97-.91.17-.16.34-.32.5-.47h0,0Z"></path>
          <path class="cls-72" d="M15.03,41.35l-.23.06-2.18-1.91-.28-1.83c-.32.03-.64.06-.97.1-.35.04-.71.07-1.06.1-.27.03-.54.05-.81.07-.09,0-.2.02-.23-.11.02-.31.04-.62.06-.93-.02.03-.05.07-.05.1-.02.33-.05.67-.07,1,.05.09.1.19.14.28.22.47.43.95.65,1.42.25.55.5,1.1.76,1.65l2.77,1.41c.24-.23.48-.46.72-.69.25-.24.51-.48.77-.72Z"></path>
          <polygon class="cls-72" points="19.58 37.07 19.58 37.07 19.58 37.07 19.58 37.07"></polygon>
          <path class="cls-81" d="M9.36,38.28c-.04-.1-.09-.19-.14-.28-.02,0-.04,0-.06,0h0c-.07.08-.13.17-.21.24-.07.06-.13.12-.2.18l1.12,2.48.9.46c-.25-.55-.5-1.1-.76-1.65-.22-.47-.43-.95-.65-1.42Z"></path>
          <path class="cls-81" d="M9.16,38c-.21-.07-.42-.08-.62-.05l.02.05c.2,0,.4,0,.6,0h0Z"></path>
          <path class="cls-41" d="M41.05,37.42s-.04,0-.06,0c-1.41,0-2.83,0-4.24,0-.58,0-1.16,0-1.75,0,.08.13.15.27.25.39.31.4.63.8.95,1.2.46.58.92,1.16,1.38,1.74l.47-.17,1.98-1.59,1.35-.38c.03-.26.06-.51.09-.77,0-.44.02-.41-.41-.41Z"></path>
          <path class="cls-40" d="M35.25,37.8c-.09-.12-.16-.26-.25-.39-.02,0-.04,0-.06,0-.08.36-.16.72-.23,1.07-.21,1.05-.42,2.1-.62,3.15-.09.45-.17.91-.25,1.36.03.25.02.26.25.31.39.08.78.16,1.17.24l1.53-2.52.79-.29c-.46-.58-.92-1.16-1.38-1.74-.32-.4-.64-.8-.95-1.2Z"></path>
          <path class="cls-40" d="M34.94,37.42c-.02-.14-.04-.27-.06-.41,0,.1,0,.19,0,.29.02.04.04.08.06.12Z"></path>
          <path class="cls-88" d="M18.82,43.06c-.22-.13-.44-.01-.65.02-.72.12-1.45.26-2.17.4l2.43-.23.59,1.58c-.04-.36-.09-.72-.13-1.08-.03-.23-.05-.46-.07-.69Z"></path>
          <path class="cls-19" d="M30.25,47.02c.57-.61,1.14-1.21,1.7-1.82.43-.47.86-.94,1.29-1.41.14-.15.28-.29.41-.44-.03-.13-.14-.11-.23-.12-.77-.02-1.55.01-2.32-.05-.83-.07-1.66,0-2.49-.05-1.11-.07-2.22-.06-3.34-.07-.66,0-1.32,0-1.98,0,0,.12,0,.23,0,.35.03.33.07.65.1.98.04.44.09.88.13,1.32.02.19.04.38.06.58.07.62.15,1.24.22,1.87.05.44.08.88.13,1.32,0,.01,0,.03,0,.04l5.15-1.24c.32-.35.63-.7.95-1.05.06-.07.14-.14.2-.21Z"></path>
          <path class="cls-78" d="M23.94,49.48c-.05-.44-.08-.88-.13-1.32-.07-.62-.15-1.24-.22-1.87-.02-.19-.04-.38-.06-.58-.04-.44-.09-.88-.13-1.32-.03-.33-.07-.65-.1-.98-.02-.14-.04-.27-.06-.41h-.06c-.41,0-.81,0-1.22,0,.1.02.2.05.31.06.25,0,.5,0,.76,0,.12,0,.16.05.1.17-.03.07-.07.14-.1.21-.87,1.73-1.73,3.46-2.6,5.2l.58,1.56s.05.01.08.02l2.86-.69s0-.03,0-.04Z"></path>
          <path class="cls-27" d="M33.84,43.78c-.03-.18-.04-.36-.06-.55h0s-.04,0-.06,0l-.06.12c-.14.15-.28.29-.41.44-.43.47-.86.94-1.29,1.41-.57.61-1.13,1.21-1.7,1.82-.07.07-.14.14-.2.21-.32.35-.63.7-.95,1.05l3.84-.92,1.16-1.91c-.02-.11-.04-.21-.05-.32-.07-.45-.14-.89-.21-1.34Z"></path>
          <path class="cls-75" d="M23.24,43c.02.14.04.27.06.41,0-.12,0-.23,0-.35l-.06-.06Z"></path>
          <path class="cls-85" d="M18.82,43.06c.02-.17.04-.35.06-.52.04-.37.08-.74.13-1.12.07-.49.15-.99.21-1.48.07-.47.12-.93.19-1.4.05-.4.11-.8.17-1.2,0-.05.04-.11.06-.16,0-.04,0-.08,0-.12-.02,0-.04,0-.06,0-.17.16-.34.32-.5.47-.32.3-.65.61-.97.91-.37.35-.74.7-1.12,1.05l1.01,1.13-2.97.71c-.26.24-.51.48-.77.72-.24.23-.48.46-.72.69l1.58.8.89-.09c.72-.13,1.44-.27,2.17-.4.21-.04.43-.15.65-.02Z"></path>
          <path class="cls-85" d="M19.63,37.07h0s0,.08,0,.12c0-.04,0-.08,0-.12Z"></path>
          <path class="cls-79" d="M22.04,41.06c-.34-.55-.67-1.11-1-1.66-.31-.5-.62-1-.93-1.5-.15-.24-.32-.48-.47-.72-.02.05-.05.1-.06.16-.06.4-.11.8-.17,1.2-.06.47-.12.93-.19,1.4-.07.49-.15.99-.21,1.48-.05.37-.09.74-.13,1.12,0,.51-.04.46.47.47.87,0,1.74,0,2.61,0h1.22c-.07-.14-.12-.28-.2-.41-.31-.51-.63-1.02-.94-1.53Z"></path>
          <path class="cls-31" d="M33.84,43c-.02.08-.04.16-.06.23.02.18.03.36.06.55.07.45.14.9.21,1.34.02.11.04.21.05.32l1.15-1.9c-.39-.08-.78-.15-1.17-.24-.23-.05-.23-.06-.25-.31Z"></path>
          <path class="cls-87" d="M18.88,42.54c-.02.17-.04.35-.06.52.02.23.04.46.07.69.04.36.09.72.13,1.08l1.41,3.81c.86-1.73,1.73-3.46,2.6-5.2.03-.07.07-.14.1-.21.05-.11.02-.17-.1-.17-.25,0-.5,0-.76,0-.1,0-.2-.04-.31-.06-.87,0-1.74,0-2.61,0-.52,0-.47.05-.47-.47Z"></path>
        </g>
        <g>
          <path class="cls-71" d="M6.95,26.61c-.46,0-.86-.09-1.22-.27-.36-.18-.63-.45-.83-.81-.2-.36-.3-.83-.3-1.39v-3.11h1.59v2.87c0,.46.1.79.29,1.01.19.21.47.32.82.32.25,0,.46-.05.65-.16.19-.11.34-.27.45-.49.11-.22.16-.5.16-.83v-2.72h1.59v5.5h-1.51v-1.51l.28.44c-.18.38-.45.67-.81.86-.36.19-.75.29-1.17.29Z"></path>
          <path class="cls-71" d="M11.08,22.38v-1.23h3.81v1.23h-3.81ZM13.98,26.61c-.65,0-1.15-.17-1.51-.5-.36-.33-.54-.82-.54-1.48v-4.82h1.59v4.8c0,.23.06.41.18.54s.29.19.5.19c.25,0,.47-.07.64-.2l.43,1.12c-.16.12-.36.2-.59.26s-.46.09-.71.09Z"></path>
          <path class="cls-71" d="M17.88,26.61c-.43,0-.8-.07-1.1-.22-.31-.15-.54-.34-.7-.6-.16-.25-.25-.53-.25-.85s.08-.61.24-.86c.16-.25.41-.44.76-.58.35-.14.8-.21,1.36-.21h1.46v.93h-1.29c-.37,0-.63.06-.77.18-.14.12-.21.28-.21.46,0,.2.08.37.24.49s.38.18.66.18c.27,0,.5-.06.71-.19s.36-.31.46-.56l.25.74c-.12.35-.33.62-.63.81-.31.18-.7.28-1.19.28ZM19.55,26.53v-1.07l-.1-.23v-1.92c0-.34-.1-.61-.31-.8s-.53-.29-.95-.29c-.29,0-.58.05-.86.14-.28.09-.52.22-.72.37l-.57-1.11c.3-.21.66-.37,1.08-.49.42-.12.85-.17,1.29-.17.84,0,1.49.2,1.95.59s.69,1.01.69,1.85v3.14h-1.49Z"></path>
          <path class="cls-71" d="M25.82,20.95c.44,0,.83.09,1.17.26.34.17.61.44.81.8.2.36.3.82.3,1.38v3.15h-1.59v-2.9c0-.44-.1-.77-.29-.98-.19-.21-.47-.32-.82-.32-.25,0-.48.05-.68.16-.2.11-.36.27-.47.49-.11.22-.17.5-.17.84v2.72h-1.59v-7.58h1.59v3.61l-.36-.46c.2-.37.48-.65.85-.85s.79-.3,1.26-.3Z"></path>
        </g>
        <g>
          <path class="cls-71" d="M14.71,31.66c-.5,0-.95-.11-1.35-.33s-.73-.52-.97-.91-.36-.84-.36-1.36.12-.98.36-1.37.57-.69.97-.9c.4-.21.85-.32,1.35-.32.45,0,.85.09,1.2.27.35.18.62.47.81.85.19.38.29.87.29,1.47s-.1,1.08-.29,1.46c-.19.38-.46.67-.81.85-.35.19-.75.28-1.2.28ZM14.95,33.93c-.51,0-.99-.06-1.46-.18-.47-.12-.86-.31-1.17-.55l.62-1.12c.23.19.51.34.86.44.35.11.69.17,1.03.17.55,0,.95-.12,1.2-.37.25-.25.37-.61.37-1.1v-.81l.1-1.35-.02-1.36v-1.16h1.48v4.48c0,1-.26,1.74-.78,2.21-.52.47-1.27.71-2.24.71ZM15.02,30.38c.27,0,.52-.05.73-.17.21-.11.38-.26.5-.46s.18-.43.18-.69-.06-.5-.18-.69c-.12-.2-.29-.35-.5-.46-.21-.11-.46-.17-.73-.17s-.52.06-.73.17c-.21.11-.38.26-.5.46-.12.2-.18.43-.18.69s.06.49.18.69c.12.2.29.35.5.46.21.11.46.17.73.17Z"></path>
          <path class="cls-71" d="M21.78,32c-.57,0-1.08-.12-1.52-.36-.44-.24-.79-.57-1.05-.99-.26-.42-.38-.89-.38-1.42s.13-1.02.38-1.43.61-.74,1.05-.98.95-.35,1.52-.35,1.07.12,1.52.35c.45.24.8.56,1.05.97.25.41.38.89.38,1.44s-.13,1.01-.38,1.42c-.25.42-.6.74-1.05.99-.45.24-.95.36-1.52.36ZM21.78,30.72c.26,0,.49-.06.7-.18.21-.12.37-.29.49-.52.12-.22.18-.49.18-.79s-.06-.58-.18-.8-.28-.39-.49-.51c-.21-.12-.44-.18-.7-.18s-.49.06-.7.18c-.21.12-.37.29-.49.51-.12.22-.18.49-.18.8s.06.57.18.79c.12.22.29.39.49.52.21.12.44.18.7.18Z"></path>
          <path class="cls-71" d="M26.93,31.92l-2.26-5.38h1.61l1.88,4.63h-.8l1.95-4.63h1.5l-2.27,5.38h-1.61Z"></path>
          <path class="cls-71" d="M33.57,32c-.57,0-1.07-.12-1.51-.36-.44-.24-.79-.57-1.04-.99-.25-.42-.38-.89-.38-1.42s.13-1.02.38-1.43c.25-.42.6-.74,1.04-.98s.95-.35,1.51-.35,1.08.12,1.53.35c.45.24.8.56,1.05.98.25.42.38.89.38,1.43s-.13,1.02-.38,1.43c-.25.41-.6.74-1.05.98-.45.24-.96.36-1.53.36ZM33.57,30.72c.27,0,.5-.06.7-.17s.37-.29.49-.52c.12-.23.18-.49.18-.8s-.06-.58-.18-.8-.29-.39-.49-.51c-.2-.12-.43-.17-.69-.17s-.49.06-.7.17c-.21.12-.37.29-.49.51-.12.22-.18.49-.18.8s.06.57.18.8c.12.23.29.4.49.52.21.12.44.17.69.17Z"></path>
          <path class="cls-71" d="M36.91,33.85v-7.32h1.49v1.1l-.03,1.6.1,1.59v3.03h-1.56ZM40.08,32c-.45,0-.84-.1-1.18-.3-.34-.2-.6-.51-.79-.91s-.28-.93-.28-1.55.09-1.15.27-1.56c.18-.41.44-.71.78-.91.34-.2.74-.3,1.2-.3.51,0,.97.11,1.37.34.4.23.72.55.96.96.24.41.35.9.35,1.46s-.12,1.05-.35,1.46-.56.73-.96.96c-.4.23-.86.34-1.37.34ZM39.82,30.72c.26,0,.49-.06.69-.18.2-.12.37-.29.49-.52.12-.22.18-.49.18-.79s-.06-.58-.18-.8-.29-.39-.49-.51c-.2-.12-.43-.17-.69-.17s-.49.06-.7.17c-.21.12-.37.29-.49.51s-.18.49-.18.8.06.57.18.79c.12.22.29.39.49.52.21.12.44.18.7.18Z"></path>
          <path class="cls-71" d="M45.47,32c-.46,0-.9-.05-1.32-.16-.42-.11-.76-.25-1.01-.42l.51-1.11c.25.15.55.27.88.36.34.1.67.14.99.14.36,0,.61-.04.76-.13.15-.09.22-.21.22-.36,0-.13-.06-.22-.17-.29-.12-.06-.27-.11-.46-.14-.19-.03-.4-.07-.63-.1-.23-.03-.46-.08-.69-.14-.23-.06-.44-.14-.64-.25s-.35-.26-.47-.45c-.12-.19-.17-.44-.17-.75,0-.34.1-.64.3-.9.2-.26.48-.47.85-.61s.81-.22,1.33-.22c.37,0,.75.04,1.12.12.38.08.69.2.95.34l-.53,1.11c-.25-.15-.51-.25-.77-.31-.26-.06-.51-.09-.75-.09-.36,0-.62.05-.78.14-.16.09-.24.21-.24.36,0,.13.06.24.18.31.12.07.28.12.47.16.19.03.41.07.64.1.23.03.46.08.69.14s.44.15.63.25c.2.11.35.26.47.46.12.19.17.44.17.75,0,.33-.1.62-.3.87s-.49.46-.86.6c-.38.15-.83.22-1.37.22Z"></path>
        </g>
      </g>
    </g>
  </g>
</svg>
